<?xml version="1.0" standalone="no"?>
<!DOCTYPE svg PUBLIC "-//W3C//DTD SVG 20010904//EN"
 "http://www.w3.org/TR/2001/REC-SVG-20010904/DTD/svg10.dtd">
<svg version="1.0" xmlns="http://www.w3.org/2000/svg"
 width="512.000000pt" height="512.000000pt" viewBox="0 0 512.000000 512.000000"
 preserveAspectRatio="xMidYMid meet">
<metadata>
Created by potrace 1.15, written by Peter Selinger 2001-2017
</metadata>
<g transform="translate(0.000000,512.000000) scale(0.100000,-0.100000)"
fill="#000000" stroke="none">
<path d="M985 5113 c-24 -4 -125 -99 -483 -456 -250 -249 -462 -464 -473 -480
-11 -15 -19 -37 -17 -50 4 -18 71 45 420 391 l415 414 10 -54 9 -53 -428 -430
c-352 -355 -428 -436 -428 -458 0 -15 3 -27 7 -27 4 0 202 195 440 432 l433
433 32 -33 33 -32 -473 -473 c-390 -391 -472 -478 -472 -500 0 -15 3 -27 7
-27 4 0 225 217 490 482 l483 483 32 -33 33 -32 -523 -523 c-432 -433 -522
-527 -522 -550 0 -15 3 -27 7 -27 4 0 247 240 540 532 l533 533 32 -33 33 -32
-573 -573 c-475 -475 -572 -577 -572 -600 0 -15 3 -27 7 -27 4 0 270 262 590
582 576 576 582 582 603 563 48 -43 57 -32 -590 -680 -507 -508 -610 -615
-610 -638 0 -15 3 -27 7 -27 4 0 279 271 610 602 l603 603 0 -65 0 -65 -610
-610 c-507 -508 -610 -615 -610 -638 0 -15 3 -27 7 -27 4 0 279 271 610 602
539 539 603 600 603 573 -1 -24 -10 -37 -46 -64 -143 -108 -340 -326 -452
-501 -44 -68 -123 -154 -388 -421 -273 -273 -334 -340 -334 -362 0 -15 3 -27
7 -27 4 0 135 127 291 283 l283 282 -29 -65 c-16 -36 -35 -83 -42 -105 -10
-31 -66 -94 -261 -291 -200 -201 -249 -256 -249 -278 0 -14 3 -26 7 -26 4 0
107 99 229 221 l221 221 -23 -88 -23 -87 -206 -207 c-163 -165 -205 -212 -205
-233 0 -15 3 -27 7 -27 4 0 93 86 198 190 l191 191 -10 -75 -11 -75 -187 -189
c-149 -150 -188 -195 -188 -216 0 -14 3 -26 7 -26 4 0 87 80 185 177 l178 177
0 -64 0 -64 -185 -187 c-146 -147 -185 -192 -185 -213 0 -14 3 -26 7 -26 4 0
86 79 183 176 l177 175 6 -58 6 -58 -189 -191 c-151 -151 -190 -197 -190 -218
0 -14 3 -26 7 -26 4 0 91 84 193 186 l187 185 7 -57 7 -57 -201 -202 c-160
-162 -200 -207 -200 -229 0 -22 3 -25 17 -17 10 5 103 95 208 200 l190 191 12
-53 12 -52 -220 -221 c-175 -177 -219 -226 -219 -247 0 -15 3 -27 7 -27 4 0
107 99 229 221 l222 221 12 -52 12 -52 -241 -242 c-195 -197 -241 -248 -241
-270 0 -22 3 -25 17 -17 10 5 124 116 253 245 l234 236 19 -47 18 -46 -271
-272 c-220 -221 -270 -277 -270 -299 0 -22 3 -25 18 -17 9 5 134 127 277 270
143 144 263 261 266 261 3 0 14 -18 24 -40 l18 -41 -301 -303 c-246 -246 -302
-307 -302 -329 0 -15 3 -27 7 -27 4 0 146 138 316 308 170 169 311 303 313
297 2 -5 13 -23 23 -40 l19 -30 -339 -341 c-279 -280 -339 -345 -339 -367 0
-23 3 -26 18 -18 9 5 167 161 351 345 l335 335 23 -34 c13 -19 23 -37 23 -42
0 -4 -169 -177 -375 -383 -308 -309 -375 -381 -375 -403 0 -15 3 -27 7 -27 4
0 181 173 393 385 l386 386 27 -38 27 -38 -420 -420 c-346 -347 -420 -426
-420 -448 0 -15 3 -27 7 -27 4 0 200 192 435 427 l428 428 32 -33 33 -32 -443
-443 c-243 -243 -442 -446 -442 -450 0 -4 12 -7 27 -7 22 0 103 76 458 430
l431 430 32 -33 32 -33 -381 -379 c-209 -209 -385 -388 -390 -397 -8 -15 -5
-18 18 -18 22 0 93 66 410 382 l383 383 32 -33 33 -32 -343 -343 c-188 -188
-342 -346 -342 -350 0 -4 12 -7 27 -7 22 0 88 61 363 335 328 327 336 335 358
319 51 -36 40 -51 -254 -344 -151 -151 -280 -283 -285 -293 -8 -14 -5 -17 17
-17 20 0 55 28 149 120 l122 121 5 -58 5 -58 -53 -57 c-30 -31 -54 -59 -54
-62 0 -3 11 -6 24 -6 13 0 43 18 70 41 l46 41 34 -29 c19 -15 33 -34 31 -41
-4 -10 293 -12 1483 -10 879 2 1495 7 1506 12 14 7 17 6 12 -2 -5 -8 2 -12 20
-12 24 0 107 79 512 483 266 265 492 494 503 510 11 15 19 37 17 50 -4 18 -73
-46 -427 -398 l-424 -420 222 254 c168 193 224 263 233 295 9 33 47 78 205
237 154 157 193 201 193 223 0 22 -3 25 -17 17 -10 -5 -94 -87 -188 -180 -93
-94 -173 -171 -177 -171 -5 0 -8 8 -8 18 0 10 -7 28 -16 41 -16 22 -14 25 195
235 168 170 211 218 211 239 0 15 -3 27 -7 27 -4 0 -106 -99 -228 -220 l-221
-220 -42 22 -41 23 269 271 c220 221 270 276 270 298 0 22 -3 25 -17 17 -10
-5 -146 -138 -303 -295 l-285 -286 -65 0 -64 0 367 368 c301 302 367 373 367
395 0 15 -3 27 -7 27 -4 0 -186 -178 -404 -396 -390 -390 -396 -395 -433 -392
l-36 3 46 70 c32 48 173 197 440 466 323 324 394 400 394 422 0 15 -3 27 -7
27 -4 0 -160 -152 -346 -338 -334 -333 -338 -336 -312 -277 15 33 36 83 47
110 16 42 68 99 319 351 243 244 299 305 299 327 0 15 -3 27 -7 27 -4 0 -130
-123 -281 -273 -151 -149 -272 -263 -269 -252 3 11 13 49 22 85 l16 65 260
261 c209 210 259 266 259 287 0 15 -3 27 -7 27 -4 0 -117 -109 -251 -243 -203
-201 -243 -237 -239 -212 3 17 9 50 12 75 7 43 20 58 246 286 192 193 239 246
239 267 0 15 -3 27 -7 27 -4 0 -110 -102 -235 -227 l-228 -227 0 64 0 64 235
236 c189 190 235 242 235 263 0 15 -3 27 -7 27 -4 0 -110 -102 -235 -227
l-228 -227 0 64 0 64 235 236 c189 190 235 242 235 263 0 15 -3 27 -7 27 -4 0
-112 -104 -239 -231 l-233 -232 -5 34 c-3 19 -7 44 -8 56 -2 17 54 79 245 271
199 200 247 254 247 275 0 15 -3 27 -7 27 -4 0 -118 -111 -254 -246 l-247
-246 -11 53 -12 53 266 266 c214 215 265 272 265 293 0 15 -3 27 -7 27 -4 0
-127 -120 -274 -266 l-267 -266 -12 52 -12 52 286 287 c234 235 286 292 286
315 0 22 -3 25 -17 17 -10 -5 -144 -136 -298 -290 l-279 -280 -18 47 -18 47
315 315 c259 260 315 321 315 344 0 22 -3 25 -17 17 -10 -5 -155 -147 -323
-315 -168 -168 -308 -306 -311 -306 -3 0 -13 19 -23 42 l-16 42 345 346 c282
283 345 351 345 373 0 15 -3 27 -7 27 -4 0 -166 -158 -359 -351 l-352 -352
-22 43 -22 43 381 381 c313 314 381 387 381 409 0 15 -3 27 -7 27 -4 0 -182
-174 -395 -387 -213 -213 -389 -385 -391 -382 -2 2 -14 19 -27 37 l-23 34 422
422 c347 347 421 427 421 449 0 15 -3 27 -7 27 -4 0 -200 -192 -436 -427
l-428 -428 -29 35 -29 35 465 465 c383 385 464 471 464 493 0 15 -3 27 -7 27
-4 0 -220 -213 -481 -472 l-473 -473 -29 35 -29 35 509 510 c425 426 510 515
510 538 0 23 -3 26 -17 18 -10 -5 -247 -239 -528 -520 l-509 -511 -33 32 -33
32 560 561 c465 465 560 565 560 588 0 15 -3 27 -7 27 -4 0 -264 -257 -578
-570 l-570 -570 -35 29 -35 30 557 558 c307 307 558 562 558 566 0 4 -12 7
-27 7 -23 0 -121 -94 -578 -550 l-550 -549 -35 29 -35 29 513 513 c281 283
512 517 512 521 0 4 -12 7 -27 7 -22 0 -115 -87 -534 -506 l-507 -507 -36 22
c-20 13 -36 26 -36 29 0 4 207 214 461 467 253 253 465 468 470 478 8 14 5 17
-18 17 -22 0 -105 -78 -493 -465 -256 -256 -468 -465 -472 -465 -4 0 -23 10
-43 21 l-37 22 436 436 c240 240 436 440 436 444 0 4 -12 7 -27 7 -22 0 -103
-76 -458 -430 l-431 -430 -42 16 c-23 10 -42 20 -42 23 0 3 176 182 391 396
214 215 395 398 400 408 8 14 5 17 -18 17 -22 0 -96 -69 -427 -399 l-401 -399
-40 15 c-22 9 -42 18 -44 20 -3 2 162 171 367 376 205 205 372 376 372 380 0
4 -12 7 -27 7 -22 0 -94 -67 -399 -371 l-371 -371 -44 13 c-24 7 -46 14 -48
16 -3 2 151 160 342 351 191 191 347 351 347 355 0 4 -12 7 -27 7 -22 0 -91
-64 -377 -349 l-351 -348 -35 9 c-19 5 -41 11 -49 14 -10 3 98 118 312 332
180 180 327 331 327 335 0 4 -12 7 -27 7 -22 0 -88 -61 -358 -331 -313 -311
-334 -330 -361 -324 -16 3 -40 8 -53 11 -22 5 10 39 287 317 172 172 312 316
312 320 0 4 -12 7 -27 7 -22 0 -85 -58 -343 -315 l-316 -315 -64 0 -65 0 308
308 c169 169 307 311 307 315 0 4 -12 7 -27 7 -22 0 -86 -59 -345 -317 l-318
-317 0 64 0 65 236 235 c129 129 240 243 245 253 8 14 5 17 -17 17 -22 0 -70
-42 -246 -217 l-218 -217 0 65 0 64 136 135 c155 155 167 170 129 170 -20 0
-55 -28 -144 -115 l-118 -116 -6 58 -6 57 50 52 c27 29 49 55 49 58 0 3 -11 6
-24 6 -13 0 -42 -17 -66 -38 l-43 -38 -41 40 -41 41 -690 1 c-379 1 -703 -1
-720 -3z m445 -328 l-114 -115 -33 32 -33 32 82 83 83 83 65 0 65 0 -115 -115z
m150 -50 l-164 -165 -33 32 -33 32 132 133 133 133 65 0 65 0 -165 -165z m125
-75 l-240 -240 -7 57 -8 58 182 182 183 183 65 0 65 0 -240 -240z m100 -100
l-340 -340 -3 62 -3 62 278 278 278 278 65 0 65 0 -340 -340z m495 317 c0 -16
-115 -137 -420 -442 l-420 -420 0 65 0 65 377 377 378 378 42 0 c38 0 43 -3
43 -23z m-417 -639 l-418 -418 -3 62 -3 62 418 418 418 418 3 -62 3 -62 -418
-418z m0 -200 l-418 -418 -3 62 -3 62 418 418 418 418 3 -62 3 -62 -418 -418z
m0 -200 l-418 -418 -3 62 -3 62 418 418 418 418 3 -62 3 -62 -418 -418z m801
414 c3 -5 -33 -46 -80 -93 l-84 -84 0 65 c0 56 3 67 27 92 23 24 35 28 79 28
29 0 55 -4 58 -8z m150 -17 l39 -6 -89 -90 c-93 -93 -101 -97 -174 -83 l-32 7
92 92 c56 56 99 91 109 89 9 -1 34 -6 55 -9z m188 -43 c4 -4 -29 -44 -75 -89
l-82 -82 -53 11 -54 11 87 87 87 87 42 -9 c22 -5 44 -12 48 -16z m-1139 -554
l-418 -418 -3 62 -3 62 418 418 418 418 3 -62 3 -62 -418 -418z m1258 520 c22
-6 39 -14 39 -17 0 -4 -35 -41 -78 -84 l-77 -77 -40 11 c-22 6 -44 13 -49 16
-9 6 143 163 158 163 5 0 26 -5 47 -12z m147 -56 l41 -18 -79 -79 -79 -78 -46
18 -47 17 78 79 c43 44 82 79 85 79 4 0 25 -8 47 -18z m133 -64 l40 -22 -77
-77 -77 -77 -44 21 -43 21 77 78 c43 43 79 78 81 78 3 0 22 -10 43 -22z m159
-98 c0 -3 -33 -38 -73 -78 l-74 -73 -36 21 c-21 12 -37 25 -37 28 0 4 32 39
72 79 l72 72 38 -21 c21 -12 38 -24 38 -28z m-1697 -502 l-418 -418 -3 62 -3
62 418 418 418 418 3 -62 3 -62 -418 -418z m1795 435 l22 -18 -74 -74 -74 -74
-34 23 c-18 13 -35 25 -37 27 -3 2 28 37 69 78 78 78 77 78 128 38z m-846 -72
c4 -4 -64 -78 -152 -166 l-160 -160 0 65 0 65 108 108 107 107 45 -6 c25 -3
48 -9 52 -13z m945 -9 l32 -28 -73 -73 -74 -73 -36 28 -36 29 72 72 c40 40 75
73 78 73 3 -1 20 -13 37 -28z m-781 -34 c2 -2 -105 -112 -236 -243 l-240 -240
0 65 0 65 191 191 192 192 44 -13 c25 -8 47 -15 49 -17z m-1113 -520 l-418
-418 -3 62 -3 62 418 418 418 418 3 -62 3 -62 -418 -418z m1257 462 c0 -3
-139 -145 -310 -315 l-310 -310 0 65 0 65 266 266 267 267 43 -16 c24 -9 44
-19 44 -22z m698 -107 l-72 -73 -33 32 -33 32 72 73 72 73 33 -32 33 -32 -72
-73z m-2839 -237 c-127 -127 -229 -222 -225 -211 4 11 33 67 64 125 52 95 72
121 222 273 l165 168 3 -62 3 -63 -232 -230z m2271 275 c0 -4 -169 -175 -375
-381 l-375 -375 0 65 0 65 337 337 337 337 38 -21 c21 -12 38 -24 38 -27z
m705 -43 l26 -31 -72 -73 -71 -72 -31 35 -30 34 69 70 c37 38 72 69 75 69 4 0
19 -14 34 -32z m-610 -13 l30 -24 -435 -436 -435 -435 -3 62 -3 62 398 398
c219 219 402 398 408 398 5 0 24 -11 40 -25z m-1482 -537 l-418 -418 -3 62 -3
62 418 418 418 418 3 -62 3 -62 -418 -418z m1592 453 l33 -28 -494 -494 -494
-494 0 65 0 65 457 457 c252 252 460 458 462 458 2 0 18 -13 36 -29z m-2303
-85 c-33 -41 -82 -112 -110 -158 -40 -65 -90 -122 -227 -258 -98 -96 -174
-166 -171 -155 3 11 15 52 26 90 l22 70 256 258 c253 253 329 310 204 153z
m2887 75 c12 -16 21 -33 21 -38 0 -5 -31 -39 -69 -77 l-68 -68 -28 37 -28 36
69 70 c37 38 72 69 76 69 3 0 16 -13 27 -29z m-991 -658 l-543 -543 -3 62 -3
62 513 513 512 513 34 -32 33 -32 -543 -543z m1092 500 c0 -11 -138 -148 -144
-142 -2 2 -13 20 -25 39 l-21 35 72 72 72 72 23 -34 c13 -19 23 -38 23 -42z
m-2277 -485 l-418 -418 -3 62 -3 62 418 418 418 418 3 -62 3 -62 -418 -418z
m1793 446 l23 -30 -589 -589 -590 -590 0 65 0 65 557 557 c307 307 562 557
567 555 5 -2 20 -17 32 -33z m539 -55 l18 -40 -74 -75 -74 -74 -22 42 -22 43
72 73 c39 39 74 72 78 72 3 0 14 -18 24 -41z m-456 -56 l23 -36 -628 -629
-629 -628 -3 62 -3 62 603 603 c332 332 605 603 608 603 3 0 16 -17 29 -37z
m-1876 -535 l-418 -418 -3 62 -3 62 418 418 418 418 3 -62 3 -62 -418 -418z
m2407 422 c0 -19 -146 -166 -152 -154 -3 5 -11 26 -18 48 l-12 38 73 74 73 74
18 -33 c9 -17 17 -39 18 -47z m-459 -12 l21 -41 -664 -664 -663 -663 -3 62 -3
62 643 643 c354 354 644 643 645 643 2 0 12 -19 24 -42z m-2917 -115 l-35 -98
-127 -128 c-78 -78 -128 -122 -130 -113 -2 8 2 41 8 73 10 57 12 60 162 211
84 83 154 152 154 152 1 0 -13 -44 -32 -97z m3354 -110 l-83 -83 -13 51 -13
52 78 79 77 78 19 -47 18 -47 -83 -83z m-2385 -385 l-418 -418 -3 62 -3 62
418 418 418 418 3 -62 3 -62 -418 -418z m1335 -265 l-693 -693 -3 62 -3 62
678 678 677 678 19 -47 18 -47 -693 -693z m-2074 526 c-49 -49 -90 -86 -92
-84 -2 2 3 37 13 77 16 68 22 78 89 146 l71 73 3 -62 3 -63 -87 -87z m3159
-41 l-88 -89 -8 57 -8 57 83 84 83 83 13 -52 13 -51 -88 -89z m-354 97 l11
-40 -718 -718 -717 -717 -3 62 -3 62 703 703 c386 386 706 699 709 695 4 -4
12 -25 18 -47z m-2066 -517 l-418 -418 -3 62 -3 62 418 418 418 418 3 -62 3
-62 -418 -418z m-1044 414 l-12 -70 -114 -113 -115 -114 6 70 6 69 117 118
c64 64 119 116 120 114 2 -2 -2 -35 -8 -74z m286 -171 l-106 -106 6 70 7 70
97 98 96 98 3 -63 3 -62 -106 -105z m3289 139 l6 -45 -93 -93 -94 -94 -7 58
-7 58 88 88 c48 48 90 84 94 80 4 -4 10 -27 13 -52z m-429 -21 l7 -52 -733
-733 -734 -734 -3 62 -3 62 723 723 c398 398 726 723 730 723 3 0 9 -23 13
-51z m-2102 -561 l-418 -418 -3 62 -3 62 418 418 418 418 3 -62 3 -62 -418
-418z m-750 250 l-98 -99 -8 57 -8 57 103 104 103 104 3 -63 3 -62 -98 -98z
m3191 -7 l-106 -106 6 70 7 70 97 98 97 98 3 -63 3 -62 -107 -105z m-3510 146
l-7 -65 -97 -97 -97 -97 -7 58 -7 58 108 108 c59 59 109 106 110 104 2 -2 1
-33 -3 -69z m3195 -22 c1 -40 -2 -43 -646 -687 l-648 -648 -65 0 -65 0 705
705 c556 556 706 701 712 687 3 -9 7 -35 7 -57z m-2126 -567 l-418 -418 -3 62
-3 62 418 418 418 418 3 -62 3 -62 -418 -418z m2550 415 l-5 -68 -121 -122
c-67 -67 -123 -121 -125 -119 -2 2 4 37 12 77 l15 73 113 113 c62 62 113 113
114 113 1 0 -1 -30 -3 -67z m-3285 -150 c-87 -88 -90 -88 -102 -19 -7 39 -7
40 86 133 l93 94 3 -62 3 -63 -83 -83z m-329 107 c1 -32 -9 -45 -93 -129 l-93
-93 -8 57 -7 58 94 94 c101 102 104 102 107 13z m3186 13 l-6 -68 -542 -542
-542 -543 -65 0 -65 0 610 610 c335 336 612 610 614 610 2 0 0 -30 -4 -67z
m-2122 -585 l-418 -418 -3 62 -3 62 418 418 418 418 3 -62 3 -62 -418 -418z
m-1043 401 c7 -36 6 -38 -80 -124 l-88 -87 -12 52 -12 52 88 89 c67 68 90 85
92 72 2 -10 7 -34 12 -54z m333 -111 c-31 -32 -60 -58 -64 -58 -3 0 -12 21
-19 46 l-13 45 74 75 74 75 3 -62 3 -62 -58 -59z m3236 96 l-11 -71 -165 -164
-164 -164 22 55 c12 30 28 75 36 100 12 35 45 74 151 182 75 76 137 136 139
135 1 -2 -3 -35 -8 -73z m-444 -46 l-17 -73 -417 -417 -416 -418 -65 0 -65 0
495 495 c272 272 496 492 498 490 3 -2 -3 -37 -13 -77z m-2082 -540 l-418
-418 -3 62 -3 62 418 418 418 418 3 -62 3 -62 -418 -418z m-1008 436 c6 -38 5
-41 -73 -118 l-80 -78 -17 47 -18 46 84 85 c89 90 93 90 104 18z m3465 -120
l-30 -89 -298 -297 c-259 -260 -301 -298 -327 -298 -25 1 -27 2 -12 11 32 19
183 196 246 290 45 66 120 151 254 286 105 106 192 191 194 189 2 -1 -11 -43
-27 -92z m-3419 -18 l16 -44 -78 -78 -78 -78 -20 45 -20 44 77 78 c42 42 79
77 82 77 3 0 12 -20 21 -44z m962 -498 l-418 -418 -3 62 -3 62 418 418 418
418 3 -62 3 -62 -418 -418z m1992 486 c-62 -141 -118 -213 -317 -410 -217
-216 -255 -244 -325 -244 l-48 0 355 355 c195 195 356 355 357 355 2 0 -8 -25
-22 -56z m-2894 -125 l21 -42 -73 -73 c-41 -41 -76 -74 -80 -74 -3 0 -14 18
-24 41 l-18 40 74 75 c40 40 75 74 76 74 1 0 12 -19 24 -41z m902 -561 l-418
-418 -3 62 -3 62 418 418 418 418 3 -62 3 -62 -418 -418z m2341 440 c-60 -119
-143 -238 -223 -320 l-84 -88 -66 0 -66 0 230 230 c126 127 231 230 233 230 1
0 -10 -23 -24 -52z m-3225 -124 l-73 -73 -23 34 c-13 19 -23 37 -23 42 0 4 32
40 72 80 l72 72 24 -40 24 -41 -73 -74z m130 -11 l23 -36 -71 -71 -71 -71 -25
30 c-13 17 -24 34 -25 40 0 10 130 145 140 145 3 0 16 -17 29 -37z m654 -605
c-482 -482 -520 -518 -552 -518 -34 0 -34 0 91 128 96 98 126 135 132 162 5
29 75 104 424 453 l417 417 3 -62 3 -62 -518 -518z m-553 462 c0 -9 -29 -44
-64 -79 l-64 -63 -30 33 -31 34 72 72 71 73 23 -28 c12 -15 22 -34 23 -42z
m653 -562 l-418 -418 -65 0 -65 0 480 480 480 480 3 -62 3 -62 -418 -418z
m436 259 c9 -9 -67 -90 -321 -344 l-333 -333 -65 0 -65 0 380 380 380 380 6
-35 c3 -20 11 -41 18 -48z m-139 -362 l-315 -315 -65 0 -65 0 315 315 315 315
65 0 65 0 -315 -315z m200 0 l-315 -315 -65 0 -65 0 315 315 315 315 65 0 65
0 -315 -315z m200 0 l-315 -315 -65 0 -65 0 315 315 315 315 65 0 65 0 -315
-315z m200 0 l-315 -315 -65 0 -65 0 315 315 315 315 65 0 65 0 -315 -315z
m200 0 l-315 -315 -65 0 -65 0 315 315 315 315 65 0 65 0 -315 -315z m200 0
l-315 -315 -65 0 -65 0 315 315 315 315 65 0 65 0 -315 -315z m200 0 l-315
-315 -65 0 -65 0 315 315 315 315 65 0 65 0 -315 -315z m200 0 l-315 -315 -65
0 -65 0 315 315 315 315 65 0 65 0 -315 -315z m200 0 l-315 -315 -65 0 -65 0
315 315 315 315 65 0 65 0 -315 -315z m200 0 l-315 -315 -65 0 -65 0 315 315
315 315 65 0 65 0 -315 -315z m200 0 l-315 -315 -65 0 -65 0 315 315 315 315
65 0 65 0 -315 -315z"/>
<path d="M203 4958 c-174 -172 -196 -198 -191 -231 3 -19 32 5 192 163 103
102 192 193 197 203 8 14 5 17 -17 17 -21 0 -60 -33 -181 -152z"/>
<path d="M303 4858 c-140 -139 -264 -265 -275 -281 -10 -15 -18 -37 -16 -50 3
-18 49 23 292 263 158 157 292 293 297 303 8 14 5 17 -17 17 -22 0 -75 -47
-281 -252z"/>
<path d="M402 4758 c-194 -194 -362 -365 -373 -381 -11 -15 -19 -37 -17 -50 4
-18 67 40 392 363 213 212 392 393 397 403 8 14 5 17 -18 17 -22 0 -89 -62
-381 -352z"/>
<path d="M4696 450 c-229 -228 -422 -423 -427 -432 -8 -15 -5 -18 18 -18 22 0
93 66 411 383 211 210 392 394 403 410 11 15 19 37 17 50 -4 18 -72 -45 -422
-393z"/>
<path d="M4796 350 c-174 -173 -322 -323 -327 -332 -8 -15 -5 -18 17 -18 23 0
80 52 312 282 156 156 293 295 303 311 11 15 19 37 17 50 -4 18 -54 -28 -322
-293z"/>
<path d="M4896 250 c-119 -118 -222 -223 -227 -232 -8 -15 -5 -18 17 -18 21 0
65 37 211 183 205 202 226 227 221 260 -3 19 -37 -11 -222 -193z"/>
<path d="M4996 150 c-136 -133 -149 -150 -111 -150 18 0 49 23 111 82 102 98
127 130 122 161 -3 19 -19 7 -122 -93z"/>
</g>
</svg>
