<?xml version="1.0" standalone="no"?>
<!DOCTYPE svg PUBLIC "-//W3C//DTD SVG 20010904//EN"
 "http://www.w3.org/TR/2001/REC-SVG-20010904/DTD/svg10.dtd">
<svg version="1.0" xmlns="http://www.w3.org/2000/svg"
 width="728.000000pt" height="508.000000pt" viewBox="0 0 728.000000 508.000000"
 preserveAspectRatio="xMidYMid meet">
<metadata>
Created by potrace 1.15, written by Peter Selinger 2001-2017
</metadata>
<g transform="translate(0.000000,508.000000) scale(0.100000,-0.100000)"
fill="#000000" stroke="none">
<path d="M2683 4313 l-943 -545 0 -1103 0 -1103 153 -88 c83 -48 244 -141 357
-207 1152 -669 1376 -797 1390 -797 10 0 949 538 1230 704 30 18 193 113 363
211 l307 177 0 1103 0 1103 -943 546 c-519 300 -950 546 -958 546 -8 -1 -438
-246 -956 -547z m725 -345 c9 -9 12 -272 12 -1120 l0 -1108 645 0 c546 0 646
-2 651 -14 3 -8 -55 -91 -143 -203 l-149 -188 -899 0 c-831 0 -900 1 -903 17
-2 9 44 97 102 197 l106 180 0 981 0 982 -95 123 c-52 68 -95 128 -95 132 0
31 27 33 390 33 271 0 369 -3 378 -12z m492 -214 c91 -15 213 -55 301 -99 188
-95 397 -285 499 -455 18 -30 42 -64 52 -76 22 -25 71 -150 98 -248 52 -194
52 -421 1 -616 -43 -167 -92 -276 -181 -404 l-31 -46 -90 0 c-68 0 -91 3 -95
14 -3 8 16 42 43 78 150 193 225 408 226 648 0 127 -12 203 -50 325 -97 307
-329 555 -628 670 -141 54 -220 69 -390 70 -83 1 -156 4 -163 9 -16 10 -16
128 1 145 15 15 282 6 407 -15z m-1140 -505 l0 -100 -50 -91 c-27 -50 -50 -95
-50 -99 0 -5 -4 -17 -9 -27 -19 -38 -51 -151 -62 -224 -18 -118 -7 -302 26
-423 14 -55 33 -104 41 -108 8 -4 14 -14 14 -21 0 -8 20 -50 45 -94 l45 -80 0
-111 c0 -102 -2 -111 -19 -111 -11 0 -36 22 -59 53 -51 65 -132 197 -132 213
0 7 -6 25 -14 41 -59 119 -81 263 -81 528 1 154 4 194 24 273 13 52 29 106 37
120 8 15 14 33 14 41 0 18 83 173 118 221 41 55 85 100 99 100 10 0 13 -25 13
-101z"/>
</g>
</svg>
